<?xml version="1.0" encoding="iso-8859-1"?>
<!-- Generator: Adobe Illustrator 19.0.0, SVG Export Plug-In . SVG Version: 6.00 Build 0)  -->
<svg version="1.1" id="Layer_1" xmlns="http://www.w3.org/2000/svg" xmlns:xlink="http://www.w3.org/1999/xlink" x="0px" y="0px"
	 viewBox="0 0 512 512" style="enable-background:new 0 0 512 512;" xml:space="preserve">
<path style="fill:#FB8028;" d="M493.872,180.853H331.15V18.128c0-4.379-3.549-7.929-7.929-7.929H188.783
	c-4.38,0-7.929,3.55-7.929,7.929v162.725H18.129c-4.38,0-7.929,3.55-7.929,7.929v134.439c0,4.379,3.549,7.929,7.929,7.929h162.723
	v162.722c0,4.379,3.549,7.929,7.929,7.929h134.439c4.38,0,7.929-3.55,7.929-7.929V331.15h162.723c4.38,0,7.929-3.55,7.929-7.929
	V188.782C501.801,184.404,498.252,180.853,493.872,180.853z"/>
<g>
	<path style="fill:#C63F00;" d="M323.219,512H188.781c-9.996,0-18.128-8.133-18.128-18.128V341.349H18.129
		c-9.995,0-18.128-8.132-18.128-18.128V188.782c0-9.996,8.133-18.128,18.128-18.128h152.525V18.128
		C170.655,8.133,178.786,0,188.783,0h134.439c9.996,0,18.128,8.133,18.128,18.128v152.525h152.522
		c9.996,0,18.128,8.133,18.128,18.128V323.22c0,9.996-8.133,18.128-18.128,18.128H341.348V493.87
		C341.348,503.867,333.216,512,323.219,512z M191.051,491.602h129.898V331.15c0-5.633,4.567-10.199,10.199-10.199h160.454V191.053
		H331.151c-5.632,0-10.199-4.566-10.199-10.199V20.398H191.053v160.455c0,5.633-4.566,10.199-10.199,10.199H20.399v129.898h160.453
		c5.633,0,10.199,4.566,10.199,10.199V491.602z"/>
	<path style="fill:#C63F00;" d="M212.144,481.402c-5.633,0-10.199-4.566-10.199-10.199V383.49c0-5.633,4.566-10.199,10.199-10.199
		c5.633,0,10.199,4.566,10.199,10.199v87.713C222.343,476.836,217.777,481.402,212.144,481.402z"/>
	<path style="fill:#C63F00;" d="M212.144,362.072c-5.633,0-10.199-4.566-10.199-10.199v-6.12c0-5.633,4.566-10.199,10.199-10.199
		c5.633,0,10.199,4.566,10.199,10.199v6.12C222.343,357.506,217.777,362.072,212.144,362.072z"/>
</g>
<g>
</g>
<g>
</g>
<g>
</g>
<g>
</g>
<g>
</g>
<g>
</g>
<g>
</g>
<g>
</g>
<g>
</g>
<g>
</g>
<g>
</g>
<g>
</g>
<g>
</g>
<g>
</g>
<g>
</g>
</svg>
